<svg id="Layer_2" data-name="Layer 2" xmlns="http://www.w3.org/2000/svg" viewBox="0 0 342.215 399.921"><defs><style>.cls-1{fill:#fff;stroke:#f9b429;}.cls-1,.cls-2{stroke-linecap:round;stroke-miterlimit:10;stroke-width:9px;}.cls-2{fill:none;stroke:#c7b4b4;}</style></defs><title>Lock</title><path class="cls-1" d="M770,54.54h0a133.2,133.2,0,0,0-133.2,133.2v133.2H903.2v-133.2A133.2,133.2,0,0,0,770,54.54ZM859.163,276.9H680.837V187.739A89.163,89.163,0,0,1,770,98.576h0a89.163,89.163,0,0,1,89.163,89.163Z" transform="translate(-598.892 -50.04)"/><rect class="cls-1" x="4.5" y="147.245" width="333.215" height="248.176" rx="50.071" ry="50.071"/><path class="cls-2" d="M770,269.346h0a27.3,27.3,0,0,0-27.3,27.3h0a27.272,27.272,0,0,0,11.992,22.605,7.742,7.742,0,0,1,3.424,6.4v40.041a7.706,7.706,0,0,0,7.707,7.707h8.35a7.706,7.706,0,0,0,7.707-7.707V325.65a7.742,7.742,0,0,1,3.424-6.4A27.272,27.272,0,0,0,797.3,296.644h0A27.3,27.3,0,0,0,770,269.346Z" transform="translate(-598.892 -50.04)"/></svg>
