<svg id="Wallet" xmlns="http://www.w3.org/2000/svg" viewBox="0 0 337.337 487"><defs><style>.cls-1,.cls-5,.cls-6{fill:none;}.cls-1{stroke:#c7b4b4;}.cls-1,.cls-3,.cls-6{stroke-linecap:round;}.cls-1,.cls-2,.cls-3,.cls-5,.cls-6{stroke-miterlimit:10;}.cls-1,.cls-2,.cls-3,.cls-6{stroke-width:9px;}.cls-2{fill:#f9b429;}.cls-2,.cls-3,.cls-6{stroke:#f9b429;}.cls-3,.cls-4{fill:#fff;}.cls-5{stroke:#fff;stroke-width:0.75px;}</style></defs><title>Wallet</title><rect class="cls-1" x="-7.168" y="1241.601" width="431.428" height="48.226" transform="translate(-1138.5 428.76) rotate(-90)"/><rect class="cls-1" x="32.586" y="1131.463" width="431.428" height="269.806" rx="47.891" ry="47.891" transform="translate(-1099.398 469.165) rotate(-90)"/><circle class="cls-2" cx="227.577" cy="354.465" r="33.237"/><circle class="cls-3" cx="227.577" cy="316.666" r="33.237"/><ellipse class="cls-3" cx="228.228" cy="331.656" rx="27.336" ry="14.337"/><rect class="cls-3" x="5.171" y="106.49" width="327.666" height="376.01" rx="53.607" ry="53.607"/><path class="cls-1" d="M114.92,1269.927h56.4a0,0,0,0,1,0,0v90.747a22.056,22.056,0,0,1-22.056,22.056h-12.29a22.056,22.056,0,0,1-22.056-22.056v-90.747a0,0,0,0,1,0,0Z" transform="translate(-1264.539 423.949) rotate(-90)"/><circle class="cls-3" cx="87.551" cy="281.708" r="4.73"/><path class="cls-4" d="M144.691,1326.439c-.006.892-1.3,1.614-2.876,1.605l-32.937-.19c-1.576-.009-2.861-.746-2.856-1.637s1.3-1.614,2.875-1.605l32.937.19C143.41,1324.811,144.7,1325.548,144.691,1326.439Z" transform="translate(-81.331 -1045.5)"/><path class="cls-5" d="M144.691,1326.439c-.006.892-1.3,1.614-2.876,1.605l-32.937-.19c-1.576-.009-2.861-.746-2.856-1.637s1.3-1.614,2.875-1.605l32.937.19C143.41,1324.811,144.7,1325.548,144.691,1326.439Z" transform="translate(-81.331 -1045.5)"/><rect class="cls-6" x="4.5" y="106.49" width="327.666" height="376.01" rx="53.607" ry="53.607"/></svg>
